# xmcd
#
# Track frame offsets:
#	150
#	14620
#	31084
#	43036
#	58795
#	73461
#	90974
#	107820
#	121065
#
# Disc length: 1889 seconds
#
# Revision: 0
# Processed by: cddbd v1.5PL3 Copyright (c) Steve Scherf et al.
# Submitted via: dBpowerAMP V4.0
#
DISCID=74075f09
DTITLE=Heidi Hofmann - Wanted
DYEAR=2003
DGENRE=Country
TTITLE0=Dont throw my love away
TTITLE1=Country memories
TTITLE2=On your grave
TTITLE3=Blow me a bubble
TTITLE4=On the road again
TTITLE5=Banks of the Ohio
TTITLE6=Jambalaya
TTITLE7=Klitzekleines Herz
TTITLE8=Amazing Grace
EXTD=
EXTT0=
EXTT1=
EXTT2=
EXTT3=
EXTT4=
EXTT5=
EXTT6=
EXTT7=
EXTT8=
PLAYORDER=
